<svg width="291.65" height="70.652" viewBox="0 0 291.65 70.652" xmlns="http://www.w3.org/2000/svg"><g id="svgGroup" stroke-linecap="round" fill-rule="evenodd" font-size="9pt" stroke="#4318FF" stroke-width="0.25mm" fill="#4318FF" style="stroke:#4318FF;stroke-width:0.25mm;fill:#4318FF"><path d="M 92.35 38.701 L 113.45 69.651 L 105.45 69.651 L 85.55 39.201 L 74.85 39.201 L 74.85 69.651 L 68.45 69.651 L 68.45 0.951 L 84.9 0.951 A 50.859 50.859 0 0 1 91.873 1.396 Q 95.308 1.873 98.11 2.86 A 20.516 20.516 0 0 1 103.65 5.751 Q 110.05 10.551 110.05 19.701 Q 110.05 24.951 107.7 28.826 Q 105.35 32.701 101.35 35.176 A 27.24 27.24 0 0 1 93.898 38.335 A 31.638 31.638 0 0 1 92.35 38.701 Z M 188.15 0.951 L 225.85 0.951 L 225.85 6.401 L 210.25 6.401 L 210.25 64.201 L 225.85 64.201 L 225.85 69.651 L 188.15 69.651 L 188.15 64.201 L 203.75 64.201 L 203.75 6.401 L 188.15 6.401 L 188.15 0.951 Z M 171.55 6.851 L 150 6.851 L 150 69.651 L 143.65 69.651 L 143.65 6.851 L 121.5 6.851 L 121.5 0.951 L 172.25 0.951 L 171.55 6.851 Z M 47.4 69.651 L 41.35 51.301 L 12.05 51.301 L 6 69.651 L 0 69.651 L 22.75 0.951 L 31.2 0.951 L 54 69.651 L 47.4 69.651 Z M 291.65 35.401 Q 291.65 45.651 288.9 53.626 A 32.356 32.356 0 0 1 285.972 59.944 A 24.443 24.443 0 0 1 280.675 66.126 A 19.538 19.538 0 0 1 270.93 70.368 A 26.398 26.398 0 0 1 267 70.651 A 24.782 24.782 0 0 1 260.431 69.819 A 19.302 19.302 0 0 1 253.35 66.226 A 24.274 24.274 0 0 1 247.316 58.921 A 32.559 32.559 0 0 1 245.1 53.901 Q 242.433 46.24 242.353 36.181 A 78.543 78.543 0 0 1 242.35 35.551 A 65.925 65.925 0 0 1 242.995 26.106 A 49.025 49.025 0 0 1 245.1 17.226 A 32.541 32.541 0 0 1 248.157 10.656 A 24.8 24.8 0 0 1 253.35 4.601 A 19.579 19.579 0 0 1 263.561 0.221 A 26.087 26.087 0 0 1 267 0.001 A 24.807 24.807 0 0 1 273.434 0.797 A 19.108 19.108 0 0 1 280.675 4.476 A 24.471 24.471 0 0 1 286.572 11.646 A 33.054 33.054 0 0 1 288.9 16.926 A 48.316 48.316 0 0 1 291.005 25.821 Q 291.61 30.034 291.647 34.767 A 79.309 79.309 0 0 1 291.65 35.401 Z M 284.85 35.401 A 76.673 76.673 0 0 0 284.445 27.237 Q 283.553 18.937 280.7 13.626 Q 276.55 5.901 267 5.901 A 18.172 18.172 0 0 0 261.375 6.721 Q 256.146 8.416 253.344 13.619 A 18.462 18.462 0 0 0 253.3 13.701 Q 249.16 21.481 249.15 35.481 A 95.572 95.572 0 0 0 249.15 35.551 A 73.443 73.443 0 0 0 249.559 43.582 Q 249.99 47.479 250.871 50.704 A 28.107 28.107 0 0 0 253.45 57.151 Q 257.75 64.751 267 64.751 Q 276.5 64.751 280.675 57.126 Q 284.766 49.653 284.848 35.963 A 93.935 93.935 0 0 0 284.85 35.401 Z M 26.8 6.901 L 14.2 45.501 L 39.25 45.501 L 26.8 6.901 Z M 86.2 6.451 L 74.85 6.451 L 74.85 33.701 L 86 33.701 Q 91.369 33.701 95.148 32.288 A 14.692 14.692 0 0 0 98.525 30.526 A 9.842 9.842 0 0 0 102.143 25.538 Q 102.732 23.826 102.916 21.709 A 23.203 23.203 0 0 0 103 19.701 A 19.52 19.52 0 0 0 102.678 16.025 Q 101.854 11.736 98.925 9.526 Q 94.85 6.451 86.2 6.451 Z" vector-effect="non-scaling-stroke"/></g></svg>